REM DIRINDEX 1\3,1\4,1\5,1\6,1\2\7,1\2\8,1\2\9,1\2\10,1\2\11
REM DIRNAME cjc021,folder01,folder02,folder03,folder04,folder05,folder06,folder07,folder08,folder09,folder10
TITLE ""
FILE "DISC5Track29.mp3" MP3
  TRACK 01 AUDIO
    TITLE "0:"
    INDEX 01 00:00:00
  TRACK 02 AUDIO
    TITLE "3:cjc021_5599"
    INDEX 01 00:00:21
  TRACK 03 AUDIO
    TITLE "0:"
    INDEX 01 00:01:50
  TRACK 04 AUDIO
    TITLE "4:cjc021_5600"
    INDEX 01 00:03:21
  TRACK 05 AUDIO
    TITLE "0:"
    INDEX 01 00:04:50
  TRACK 06 AUDIO
    TITLE "5:cjc021_5601"
    INDEX 01 00:05:09
  TRACK 07 AUDIO
    TITLE "0:"
    INDEX 01 00:08:11
  TRACK 08 AUDIO
    TITLE "3:cjc021_5602"
    INDEX 01 00:09:45
  TRACK 09 AUDIO
    TITLE "0:"
    INDEX 01 00:10:59
  TRACK 10 AUDIO
    TITLE "4:cjc021_5603"
    INDEX 01 00:12:32
  TRACK 11 AUDIO
    TITLE "0:"
    INDEX 01 00:13:47
  TRACK 12 AUDIO
    TITLE "5:cjc021_5604"
    INDEX 01 00:14:06
  TRACK 13 AUDIO
    TITLE "0:"
    INDEX 01 00:16:67
  TRACK 14 AUDIO
    TITLE "3:cjc021_5605"
    INDEX 01 00:18:27
  TRACK 15 AUDIO
    TITLE "0:"
    INDEX 01 00:19:50
  TRACK 16 AUDIO
    TITLE "4:cjc021_5606"
    INDEX 01 00:21:25
  TRACK 17 AUDIO
    TITLE "0:"
    INDEX 01 00:22:48
  TRACK 18 AUDIO
    TITLE "5:cjc021_5607"
    INDEX 01 00:23:06
  TRACK 19 AUDIO
    TITLE "0:"
    INDEX 01 00:26:11
  TRACK 20 AUDIO
    TITLE "3:cjc021_5608"
    INDEX 01 00:27:49
  TRACK 21 AUDIO
    TITLE "0:"
    INDEX 01 00:28:53
  TRACK 22 AUDIO
    TITLE "4:cjc021_5609"
    INDEX 01 00:30:32
  TRACK 23 AUDIO
    TITLE "0:"
    INDEX 01 00:31:33
  TRACK 24 AUDIO
    TITLE "5:cjc021_5610"
    INDEX 01 00:31:69
  TRACK 25 AUDIO
    TITLE "0:"
    INDEX 01 00:33:69
  TRACK 26 AUDIO
    TITLE "3:cjc021_5611"
    INDEX 01 00:35:31
  TRACK 27 AUDIO
    TITLE "0:"
    INDEX 01 00:36:50
  TRACK 28 AUDIO
    TITLE "4:cjc021_5612"
    INDEX 01 00:38:24
  TRACK 29 AUDIO
    TITLE "0:"
    INDEX 01 00:39:43
  TRACK 30 AUDIO
    TITLE "5:cjc021_5613"
    INDEX 01 00:40:03
  TRACK 31 AUDIO
    TITLE "0:"
    INDEX 01 00:43:31
  TRACK 32 AUDIO
    TITLE "3:cjc021_5614"
    INDEX 01 00:44:69
  TRACK 33 AUDIO
    TITLE "0:"
    INDEX 01 00:46:21
  TRACK 34 AUDIO
    TITLE "4:cjc021_5615"
    INDEX 01 00:47:70
  TRACK 35 AUDIO
    TITLE "0:"
    INDEX 01 00:49:23
  TRACK 36 AUDIO
    TITLE "5:cjc021_5616"
    INDEX 01 00:49:57
  TRACK 37 AUDIO
    TITLE "0:"
    INDEX 01 00:52:63
  TRACK 38 AUDIO
    TITLE "3:cjc021_5617"
    INDEX 01 00:54:25
  TRACK 39 AUDIO
    TITLE "0:"
    INDEX 01 00:55:55
  TRACK 40 AUDIO
    TITLE "4:cjc021_5618"
    INDEX 01 00:57:29
  TRACK 41 AUDIO
    TITLE "0:"
    INDEX 01 00:58:60
  TRACK 42 AUDIO
    TITLE "5:cjc021_5619"
    INDEX 01 00:59:20
  TRACK 43 AUDIO
    TITLE "0:"
    INDEX 01 01:02:30
  TRACK 44 AUDIO
    TITLE "3:cjc021_5620"
    INDEX 01 01:03:67
  TRACK 45 AUDIO
    TITLE "0:"
    INDEX 01 01:05:15
  TRACK 46 AUDIO
    TITLE "4:cjc021_5621"
    INDEX 01 01:06:65
  TRACK 47 AUDIO
    TITLE "0:"
    INDEX 01 01:08:13
  TRACK 48 AUDIO
    TITLE "5:cjc021_5622"
    INDEX 01 01:08:46
  TRACK 49 AUDIO
    TITLE "0:"
    INDEX 01 01:12:68
  TRACK 50 AUDIO
    TITLE "3:cjc021_5623"
    INDEX 01 01:14:31
  TRACK 51 AUDIO
    TITLE "0:"
    INDEX 01 01:15:62
  TRACK 52 AUDIO
    TITLE "4:cjc021_5624"
    INDEX 01 01:17:35
  TRACK 53 AUDIO
    TITLE "0:"
    INDEX 01 01:18:66
  TRACK 54 AUDIO
    TITLE "5:cjc021_5625"
    INDEX 01 01:19:27
  TRACK 55 AUDIO
    TITLE "0:"
    INDEX 01 01:22:72
  TRACK 56 AUDIO
    TITLE "3:cjc021_5626"
    INDEX 01 01:24:32
  TRACK 57 AUDIO
    TITLE "0:"
    INDEX 01 01:25:62
  TRACK 58 AUDIO
    TITLE "4:cjc021_5627"
    INDEX 01 01:27:38
  TRACK 59 AUDIO
    TITLE "0:"
    INDEX 01 01:28:65
  TRACK 60 AUDIO
    TITLE "5:cjc021_5628"
    INDEX 01 01:29:29
  TRACK 61 AUDIO
    TITLE "0:"
    INDEX 01 01:32:04
